<svg width="32" height="32" viewBox="0 0 32 32" fill="none" xmlns="http://www.w3.org/2000/svg">
<g filter="url(#filter0_d_2796_678)">
<path d="M2 15C2 7.26801 8.26801 1 16 1C23.732 1 30 7.26801 30 15C30 22.732 23.732 29 16 29C8.26801 29 2 22.732 2 15Z" fill="#757575"/>
<path d="M21.5119 9.48816L21.8654 9.1346V9.1346L21.5119 9.48816ZM12.3334 21.0237V21.5237C12.466 21.5237 12.5932 21.471 12.6869 21.3772L12.3334 21.0237ZM10.0001 21.0237H9.50005C9.50005 21.2998 9.72391 21.5237 10.0001 21.5237V21.0237ZM10.0001 18.6429L9.6465 18.2894C9.55273 18.3832 9.50005 18.5103 9.50005 18.6429H10.0001ZM19.5084 9.84171C19.964 9.3861 20.7027 9.3861 21.1583 9.84171L21.8654 9.1346C21.0193 8.28847 19.6474 8.28847 18.8013 9.1346L19.5084 9.84171ZM21.1583 9.84171C21.6139 10.2973 21.6139 11.036 21.1583 11.4916L21.8654 12.1987C22.7115 11.3526 22.7115 9.98074 21.8654 9.1346L21.1583 9.84171ZM21.1583 11.4916L11.9798 20.6701L12.6869 21.3772L21.8654 12.1987L21.1583 11.4916ZM12.3334 20.5237H10.0001V21.5237H12.3334V20.5237ZM18.8013 9.1346L9.6465 18.2894L10.3536 18.9965L19.5084 9.84171L18.8013 9.1346ZM9.50005 18.6429V21.0237H10.5001V18.6429H9.50005ZM17.8013 10.8417L20.1583 13.1987L20.8654 12.4916L18.5084 10.1346L17.8013 10.8417Z" fill="white"/>
</g>
<defs>
<filter id="filter0_d_2796_678" x="0" y="0" width="32" height="32" filterUnits="userSpaceOnUse" color-interpolation-filters="sRGB">
<feFlood flood-opacity="0" result="BackgroundImageFix"/>
<feColorMatrix in="SourceAlpha" type="matrix" values="0 0 0 0 0 0 0 0 0 0 0 0 0 0 0 0 0 0 127 0" result="hardAlpha"/>
<feOffset dy="1"/>
<feGaussianBlur stdDeviation="1"/>
<feColorMatrix type="matrix" values="0 0 0 0 0 0 0 0 0 0 0 0 0 0 0 0 0 0 0.05 0"/>
<feBlend mode="normal" in2="BackgroundImageFix" result="effect1_dropShadow_2796_678"/>
<feBlend mode="normal" in="SourceGraphic" in2="effect1_dropShadow_2796_678" result="shape"/>
</filter>
</defs>
</svg>
